<svg width="18" height="14" viewBox="0 0 18 14" fill="none" xmlns="http://www.w3.org/2000/svg">
<path fill-rule="evenodd" clip-rule="evenodd" d="M4 2C3.46957 2 2.96086 2.21071 2.58579 2.58579C2.21071 2.96086 2 3.46957 2 4C2 4.53043 2.21071 5.03914 2.58579 5.41421C2.96086 5.78929 3.46957 6 4 6H6C7.06087 6 8.07828 6.42143 8.82843 7.17157C9.57857 7.92172 10 8.93913 10 10C10 11.0609 9.57857 12.0783 8.82843 12.8284C8.07828 13.5786 7.06087 14 6 14H4C3.1727 13.9999 2.36577 13.7434 1.69027 13.2658C1.01476 12.7882 0.503904 12.1129 0.228 11.333C0.145248 11.0844 0.163405 10.8132 0.278565 10.5778C0.393725 10.3424 0.596684 10.1616 0.843776 10.0743C1.09087 9.98703 1.36235 10.0002 1.59981 10.1111C1.83726 10.2219 2.02172 10.4215 2.1135 10.667C2.25159 11.0569 2.50715 11.3945 2.84498 11.6332C3.18282 11.8719 3.58634 12.0001 4 12H6C6.53043 12 7.03914 11.7893 7.41421 11.4142C7.78929 11.0391 8 10.5304 8 10C8 9.46957 7.78929 8.96086 7.41421 8.58579C7.03914 8.21071 6.53043 8 6 8H4C2.93913 8 1.92172 7.57857 1.17157 6.82843C0.421427 6.07828 0 5.06087 0 4C0 2.93913 0.421427 1.92172 1.17157 1.17157C1.92172 0.421427 2.93913 0 4 0H6C6.8273 8.57211e-05 7.63423 0.256589 8.30973 0.734204C8.98524 1.21182 9.4961 1.88707 9.772 2.667C9.85475 2.91564 9.8366 3.18684 9.72144 3.42223C9.60628 3.65763 9.40332 3.83841 9.15622 3.92569C8.90913 4.01297 8.63765 3.99977 8.40019 3.88892C8.16274 3.77808 7.97828 3.57846 7.8865 3.333C7.74841 2.94307 7.49285 2.60552 7.15502 2.3668C6.81718 2.12808 6.41366 1.99994 6 2H4Z" fill="white"/>
<path fill-rule="evenodd" clip-rule="evenodd" d="M13.9351 2C15.0961 2 16.0001 2.9155 16.0001 4C16.0001 5.0845 15.0961 6 13.9351 6H11.8911C11.6259 6 11.3715 6.10536 11.184 6.29289C10.9964 6.48043 10.8911 6.73478 10.8911 7C10.8911 7.26522 10.9964 7.51957 11.184 7.70711C11.3715 7.89464 11.6259 8 11.8911 8H13.9346C15.0961 8 16.0001 8.9155 16.0001 10C16.0001 11.0845 15.0961 12 13.9351 12H11.8911C10.9796 12 10.2191 11.4315 9.94107 10.66C9.8509 10.4105 9.6653 10.207 9.42511 10.0944C9.18493 9.98171 8.90982 9.96908 8.66032 10.0592C8.41082 10.1494 8.20736 10.335 8.09469 10.5752C7.98203 10.8154 7.9694 11.0905 8.05957 11.34C8.62257 12.899 10.1331 14 11.8911 14H13.9346C16.1601 14 18.0001 12.2295 18.0001 10C18.0002 9.43032 17.8773 8.86732 17.6397 8.34954C17.4022 7.83176 17.0555 7.37141 16.6236 7C17.0555 6.62859 17.4022 6.16824 17.6397 5.65046C17.8773 5.13268 18.0002 4.56968 18.0001 4C18.0001 1.7705 16.1596 0 13.9351 0H11.8911C10.1331 0 8.62257 1.101 8.05957 2.66C8.01492 2.78351 7.99504 2.9146 8.00105 3.04579C8.00706 3.17699 8.03886 3.30571 8.09462 3.42462C8.15038 3.54352 8.22902 3.65028 8.32604 3.7388C8.42306 3.82731 8.53656 3.89585 8.66007 3.9405C8.90951 4.03067 9.18455 4.01807 9.42469 3.90545C9.66483 3.79283 9.8504 3.58944 9.94057 3.34C10.2191 2.5685 10.9796 2 11.8911 2H13.9346H13.9351Z" fill="white"/>
</svg>
