<svg width="11" height="7" viewBox="0 0 11 7" fill="none" xmlns="http://www.w3.org/2000/svg">
<path d="M1.09373 0.843748L9.84373 0.843748C9.9361 0.843122 10.0265 0.870173 10.1034 0.921414C10.1803 0.972655 10.24 1.04574 10.275 1.13125C10.307 1.21453 10.3147 1.30523 10.2969 1.3927C10.2792 1.48016 10.2369 1.56075 10.175 1.625L5.79998 6C5.71209 6.08778 5.59295 6.13708 5.46873 6.13708C5.34451 6.13708 5.22537 6.08778 5.13748 6L0.762479 1.625C0.69686 1.55912 0.652317 1.47522 0.63451 1.38396C0.616703 1.2927 0.626439 1.19821 0.662479 1.1125C0.700279 1.03049 0.761257 0.961349 0.837891 0.913592C0.914524 0.865836 1.00346 0.841556 1.09373 0.843748ZM8.71248 1.78125L2.22498 1.78125L5.46873 5.025L8.71248 1.78125Z" fill="white"/>
</svg>
