<svg width="19" height="16" viewBox="0 0 19 16" fill="none" xmlns="http://www.w3.org/2000/svg">
<path d="M5.99997 15.4286C6.63116 15.4286 7.14283 14.9169 7.14283 14.2857C7.14283 13.6545 6.63116 13.1429 5.99997 13.1429C5.36879 13.1429 4.85712 13.6545 4.85712 14.2857C4.85712 14.9169 5.36879 15.4286 5.99997 15.4286Z" fill="white"/>
<path d="M15.1429 15.4286C15.774 15.4286 16.2857 14.9169 16.2857 14.2857C16.2857 13.6545 15.774 13.1429 15.1429 13.1429C14.5117 13.1429 14 13.6545 14 14.2857C14 14.9169 14.5117 15.4286 15.1429 15.4286Z" fill="white"/>
<path d="M3.71426 3.42857H18L16.1874 9.77142C16.0508 10.2489 15.7625 10.6689 15.3659 10.9679C14.9694 11.2669 14.4863 11.4286 13.9897 11.4286H6.33254C5.76965 11.4289 5.22642 11.2215 4.80697 10.8461C4.38751 10.4707 4.12132 9.95376 4.0594 9.39428L3.14283 1.14285H0.857117" stroke="white" stroke-linecap="round" stroke-linejoin="round"/>
</svg>
