<svg width="35" height="35" viewBox="0 0 35 35" fill="none" xmlns="http://www.w3.org/2000/svg">
    <path
        d="M20.2944 3.70508C19.5323 3.55469 18.7349 3.47949 17.9304 3.45898V2.21484C23.4415 2.36523 28.2399 5.22266 30.9567 9.50195L29.8417 10.124C29.4113 9.46094 28.9456 8.83887 28.4163 8.27148L27.1462 9.33105C25.3115 7.30762 22.8135 5.86523 19.9556 5.33887L20.2944 3.70508ZM3.76815 22.0391L5.39113 21.5127C4.93952 20.2617 4.68548 18.9014 4.68548 17.5C4.68548 16.0986 4.91835 14.7383 5.36996 13.4873L3.76815 12.9609C4.02218 12.2227 4.35383 11.5049 4.72782 10.8418L3.6129 10.2197C2.39919 12.373 1.7006 14.8682 1.7006 17.5C1.7006 20.1318 2.40625 22.627 3.6129 24.7871L4.72782 24.165C4.35383 23.4814 4.04335 22.7773 3.76815 22.0391ZM15.0373 29.668C12.1865 29.1211 9.68851 27.6787 7.84677 25.6553L6.57661 26.7354C6.04738 26.1475 5.56048 25.5254 5.15121 24.8623L4.02218 25.5049C6.73891 29.7637 11.5585 32.6348 17.0696 32.792V31.541C16.2722 31.5205 15.4677 31.4248 14.7056 31.2949L15.0373 29.668ZM6.58367 8.26465L7.85383 9.32422C9.68851 7.30078 12.1865 5.8584 15.0444 5.33203L14.7127 3.70508C15.4748 3.55469 16.2722 3.47949 17.0766 3.45898V2.21484C11.5655 2.36523 6.76714 5.22266 4.0504 9.50195L5.16532 10.124C5.58871 9.46094 6.05444 8.83203 6.58367 8.26465ZM28.4163 26.7354L27.1462 25.6553C25.3115 27.6787 22.8135 29.1211 19.9556 29.668L20.2873 31.2949C19.5252 31.4248 18.7278 31.5205 17.9234 31.541V32.792C23.4345 32.6416 28.254 29.7637 30.9708 25.5049L29.8347 24.8623C29.4325 25.5254 28.9456 26.1475 28.4163 26.7354ZM35 17.5C35 26.8652 27.1673 34.4531 17.5 34.4531C7.83266 34.4531 0 26.8652 0 17.5C0 8.13477 7.83266 0.546875 17.5 0.546875C27.1673 0.546875 35 8.13477 35 17.5ZM34.1391 17.5C34.1391 8.60645 26.6804 1.38086 17.5 1.38086C8.31956 1.38086 0.860887 8.60645 0.860887 17.5C0.860887 26.3936 8.31956 33.6191 17.5 33.6191C26.6804 33.6191 34.1391 26.3936 34.1391 17.5ZM31.3871 10.2129L30.2722 10.835C30.6462 11.498 30.9778 12.2158 31.2319 12.9541L29.63 13.4805C30.0817 14.7314 30.3145 16.0918 30.3145 17.4932C30.3145 18.8945 30.0605 20.2549 29.6089 21.5059L31.2319 22.0322C30.9567 22.7705 30.6462 23.4678 30.2722 24.1514L31.3871 24.7734C32.6008 22.627 33.2994 20.1318 33.2994 17.5C33.2994 14.8682 32.6008 12.373 31.3871 10.2129ZM18.4738 22.3604C19.624 22.1348 20.619 21.5674 21.3458 20.7539L24.9587 23.8164C25.7984 22.8867 26.4617 21.8135 26.871 20.6172L22.3407 19.1064C22.5171 18.5938 22.6159 18.0674 22.6159 17.5C22.6159 16.9326 22.5171 16.3994 22.3407 15.8936L26.8921 14.3828C26.4617 13.1934 25.7984 12.1133 24.9587 11.1836L21.3458 14.2461C20.626 13.4326 19.624 12.8447 18.4738 12.6191L19.4123 8.08008C18.8054 7.9502 18.1633 7.88867 17.5 7.88867C16.8367 7.88867 16.1946 7.94336 15.5877 8.08008L16.5262 12.6191C15.376 12.8447 14.381 13.4326 13.6542 14.2461L10.0413 11.1836C9.20161 12.1133 8.53831 13.1865 8.10786 14.3828L12.6593 15.8936C12.4829 16.4062 12.3841 16.9326 12.3841 17.5C12.3841 18.0674 12.4829 18.6006 12.6593 19.1064L8.12903 20.6172C8.53831 21.8066 9.20161 22.8867 10.0413 23.8164L13.6542 20.7539C14.374 21.5674 15.376 22.1348 16.5262 22.3604L15.5877 26.9199C16.1946 27.0361 16.8367 27.1113 17.5 27.1113C18.1633 27.1113 18.8054 27.0361 19.4123 26.9199L18.4738 22.3604Z"
        fill="white" />
</svg>