<svg width="10" height="11" viewBox="0 0 10 11" fill="none" xmlns="http://www.w3.org/2000/svg">
    <path
        d="M6.13465 10.3409C6.03576 10.3404 5.93882 10.3133 5.85406 10.2623L4.04815 9.17899C3.84499 9.0564 3.67683 8.88356 3.55985 8.67712C3.44287 8.47068 3.38103 8.2376 3.38027 8.00032V5.54928C3.38076 5.37627 3.32696 5.20747 3.22644 5.06666L0.704979 1.52307C0.646101 1.44127 0.610967 1.34479 0.603452 1.24428C0.595937 1.14377 0.616334 1.04314 0.662392 0.953488C0.70845 0.863837 0.778379 0.788653 0.864463 0.73623C0.950546 0.683807 1.04944 0.656183 1.15023 0.656407H8.91231C9.01318 0.655987 9.1122 0.68349 9.1984 0.735871C9.28461 0.788252 9.35463 0.863468 9.40073 0.953191C9.44682 1.04291 9.46719 1.14364 9.45957 1.24422C9.45195 1.34481 9.41665 1.44132 9.35756 1.52307L6.8361 5.06666C6.73542 5.20742 6.68143 5.37622 6.68173 5.54928V9.7927C6.68159 9.93785 6.62394 10.077 6.5214 10.1798C6.41886 10.2825 6.2798 10.3404 6.13465 10.3409ZM1.15023 1.20078L3.66735 4.75249C3.83367 4.98482 3.92273 5.26356 3.92194 5.54928V7.99978C3.92229 8.14353 3.95972 8.28476 4.0306 8.40982C4.10148 8.53488 4.20342 8.63954 4.32656 8.7137L6.13248 9.79703L6.14006 5.54874C6.13946 5.26296 6.22871 4.98423 6.39519 4.75195L8.9161 1.20837L1.15023 1.20078Z"
        fill="white" />
</svg>