<svg width="35" height="35" viewBox="0 0 35 35" fill="none" xmlns="http://www.w3.org/2000/svg">
<path d="M18.0792 34.1469C8.24486 34.1469 0.606122 26.2753 0.902635 16.9336C1.10031 11.5685 3.95248 6.62333 9.12734 3.35817C9.14852 3.35817 9.26148 3.31752 9.205 3.41236C8.79553 3.78494 1.3474 12.2053 8.20956 18.7491C11.7254 22.1024 14.5634 18.9185 14.5634 18.9185C17.2814 15.5246 14.5211 10.3898 14.5211 10.3898C13.8151 8.703 11.2947 7.67333 11.2947 7.67333L13.3279 5.51913C15.0505 6.23042 16.3778 8.14075 16.3778 8.14075C16.4343 6.13558 14.8317 3.98139 14.8317 3.98139L17.9804 0.546875L21.1079 3.94075C19.6606 5.89171 19.5618 8.18139 19.5618 8.18139C20.536 6.62333 22.6328 5.51913 22.6328 5.51913L24.6449 7.67333C22.7105 8.27623 21.4397 10.3762 21.4397 10.3762C20.3242 12.3069 19.5265 16.4324 21.482 18.9998C23.7694 22.0211 27.6735 18.8101 27.6735 18.8101C34.924 12.5846 26.9322 3.56817 26.9322 3.56817C26.5016 3.19558 26.9887 3.37849 26.9887 3.37849C30.5257 5.85107 35.0793 9.09591 35.1922 17.252C35.3334 27.1153 28.1395 34.1469 18.0792 34.1469Z" fill="white"/>
</svg>
